<svg width="48" height="48" viewBox="0 0 48 48" fill="none" xmlns="http://www.w3.org/2000/svg">
  <rect x="6" y="6" width="36" height="36" rx="4" stroke="currentColor" stroke-width="2" fill="none"/>
  <path d="M28 32c0 3-2 5-5 5s-5-2-5-5V18h3v14c0 1.3.7 2 2 2s2-.7 2-2V18h3v14z" fill="currentColor"/>
  <path d="M34 28c-1-1-2.5-1.5-4-1.5-1 0-1.5.3-1.5 1s.5 1 2 1.5c2 .7 3.5 1.5 3.5 3.5 0 2.5-2 3.5-4.5 3.5-2 0-4-1-5-2.5l2-2c.7 1 2 1.5 3 1.5 1 0 1.5-.3 1.5-1s-.5-1-2-1.5c-2-.7-3.5-1.5-3.5-3.5 0-2.3 1.8-3.5 4.3-3.5 1.8 0 3.5.7 4.2 1.5L34 28z" fill="currentColor"/>
</svg>