<svg width="48" height="48" viewBox="0 0 48 48" fill="none" xmlns="http://www.w3.org/2000/svg">
  <path d="M18 6h12c3.3 0 6 2.7 6 6v6h-12c-1.1 0-2 .9-2 2v4c0 3.3-2.7 6-6 6h-6c-3.3 0-6-2.7-6-6V18c0-3.3 2.7-6 6-6h8z" stroke="currentColor" stroke-width="2" fill="none"/>
  <path d="M30 42h-12c-3.3 0-6-2.7-6-6v-6h12c1.1 0 2-.9 2-2v-4c0-3.3 2.7-6 6-6h6c3.3 0 6 2.7 6 6v6c0 3.3-2.7 6-6 6h-8z" stroke="currentColor" stroke-width="2" fill="none"/>
  <circle cx="20" cy="12" r="2" fill="currentColor"/>
  <circle cx="28" cy="36" r="2" fill="currentColor"/>
</svg>